<svg width="536" height="201" viewBox="0 0 536 201" fill="none" xmlns="http://www.w3.org/2000/svg">
<mask id="path-1-outside-1_6_84" maskUnits="userSpaceOnUse" x="1" y="36" width="358" height="131" fill="black">
<rect fill="white" x="1" y="36" width="358" height="131"/>
<path d="M82.944 102.192C84.3093 102.192 85.2053 103.173 85.632 105.136C86.144 107.099 86.4 110.085 86.4 114.096C86.4 118.192 86.144 121.221 85.632 123.184C85.12 125.061 84.224 126 82.944 126C81.92 126 81.0667 125.957 80.384 125.872C79.7867 137.051 77.0987 145.883 72.32 152.368C60.3733 155.952 49.792 157.744 40.576 157.744C28.6293 157.744 19.712 155.184 13.824 150.064C8.02133 145.029 5.12 137.861 5.12 128.56C5.12 119.259 7.808 108.037 13.184 94.896L30.976 100.656C27.8187 109.019 26.24 115.76 26.24 120.88C26.24 125.403 27.4773 128.731 29.952 130.864C32.4267 133.083 36.1387 134.192 41.088 134.192C45.6107 134.192 52.0533 133.168 60.416 131.12C59.904 125.488 58.9653 119.856 57.6 114.224C56.2347 108.507 54.6987 103.216 52.992 98.352L71.552 90.544L72.576 91.056C73.5147 94.2987 74.4533 96.7307 75.392 98.352C76.416 99.888 77.4827 100.912 78.592 101.424C79.7867 101.936 81.2373 102.192 82.944 102.192ZM43.264 88.368C41.472 87.6853 39.1253 86.3627 36.224 84.4C33.3227 82.352 31.3173 80.6027 30.208 79.152C30.464 78.0427 31.104 76.5493 32.128 74.672C33.2373 72.7093 34.4747 70.96 35.84 69.424C37.2053 67.8027 38.4 66.9067 39.424 66.736C40.3627 66.5653 41.7707 66.992 43.648 68.016C45.6107 69.04 47.4027 70.32 49.024 71.856C50.7307 73.3067 51.6693 74.4587 51.84 75.312C52.1813 76.592 51.2 78.8533 48.896 82.096C46.6773 85.2533 44.8 87.344 43.264 88.368ZM134.584 71.728L117.048 77.232C124.728 88.6667 128.568 99.4187 128.568 109.488C128.568 111.621 128.355 113.627 127.928 115.504C127.501 117.381 126.776 119.557 125.752 122.032C119.608 123.483 113.293 124.507 106.808 125.104C100.323 125.701 92.3867 126 83 126C81.72 126 80.824 125.061 80.312 123.184C79.8 121.221 79.544 118.192 79.544 114.096C79.544 110.085 79.8 107.099 80.312 105.136C80.7387 103.173 81.6347 102.192 83 102.192C93.1547 102.192 101.773 101.851 108.856 101.168C103.821 94.4267 98.232 89.0933 92.088 85.168V64.56L132.792 49.328L134.584 50.608V71.728ZM200.919 77.36C207.319 77.36 212.14 79.792 215.383 84.656C218.711 89.4347 220.375 95.8347 220.375 103.856C220.375 108.464 219.82 112.219 218.711 115.12C217.602 117.936 215.852 120.155 213.463 121.776C211.159 123.397 208.215 124.549 204.631 125.232C201.047 125.915 196.482 126.256 190.935 126.256C187.692 126.256 184.066 126.128 180.055 125.872C180.226 131.931 180.695 137.989 181.463 144.048C182.316 150.107 183.298 155.269 184.407 159.536C182.53 160.56 179.586 161.371 175.575 161.968C171.65 162.651 167.852 162.992 164.183 162.992L163.543 162.48C161.324 152.069 160.215 141.232 160.215 129.968C160.215 125.445 160.386 121.52 160.727 118.192C161.324 115.291 162.86 112.133 165.335 108.72C167.81 105.307 170.284 103.216 172.759 102.448L177.879 102.704C177.794 102.192 177.751 101.424 177.751 100.4C177.751 96.9013 178.604 93.4027 180.311 89.904C182.103 86.32 184.748 83.3333 188.247 80.944C191.746 78.5547 195.97 77.36 200.919 77.36ZM198.103 103.984C201.004 103.984 203.607 103.771 205.911 103.344C208.3 102.917 209.708 102.405 210.135 101.808C209.879 100.699 208.94 99.7173 207.319 98.864C205.783 97.9253 203.778 97.456 201.303 97.456C198.914 97.456 196.567 97.8827 194.263 98.736C192.044 99.5893 190.551 101.125 189.783 103.344C192.343 103.771 195.116 103.984 198.103 103.984ZM291.731 102.192C293.096 102.192 293.992 103.173 294.419 105.136C294.931 107.099 295.187 110.085 295.187 114.096C295.187 118.192 294.931 121.221 294.419 123.184C293.907 125.061 293.011 126 291.731 126C287.891 126 284.179 124.805 280.595 122.416C277.011 119.941 274.323 116.357 272.531 111.664C264.595 114.48 256.787 115.888 249.107 115.888C247.4 122.032 245.224 128.219 242.579 134.448C240.019 140.763 237.544 146.181 235.155 150.704C232.851 155.227 231.4 157.915 230.803 158.768C227.902 157.659 224.446 155.739 220.435 153.008C216.424 150.363 213.438 147.931 211.475 145.712C217.534 136.411 222.526 127.835 226.451 119.984C230.462 112.133 233.918 103.429 236.819 93.872C239.379 94.0427 241.342 94.128 242.707 94.128C253.288 94.128 264.51 92.0373 276.371 87.856C277.822 92.3787 279.87 95.92 282.515 98.48C285.16 100.955 288.232 102.192 291.731 102.192ZM262.163 127.536C263.102 127.365 264.51 127.792 266.387 128.816C268.35 129.84 270.142 131.077 271.763 132.528C273.47 134.064 274.408 135.259 274.579 136.112C274.92 137.392 273.939 139.611 271.635 142.768C269.416 146.011 267.539 148.144 266.003 149.168C264.211 148.485 261.864 147.12 258.963 145.072C256.062 143.109 254.056 141.403 252.947 139.952C253.203 138.843 253.843 137.307 254.867 135.344C255.976 133.467 257.214 131.717 258.579 130.096C259.944 128.56 261.139 127.707 262.163 127.536ZM330.007 76.976C337.175 81.584 342.594 84.9973 346.263 87.216C349.932 89.3493 352.535 90.416 354.071 90.416C353.815 95.28 353.26 99.4187 352.407 102.832C351.639 106.16 350.316 110 348.439 114.352C346.22 114.181 344.599 114.096 343.575 114.096C338.54 114.096 332.994 115.163 326.935 117.296C324.631 118.149 322.498 118.96 320.535 119.728C315.33 121.776 310.679 123.355 306.583 124.464C302.487 125.488 297.751 126 292.375 126C291.095 126 290.199 125.061 289.687 123.184C289.175 121.221 288.919 118.192 288.919 114.096C288.919 110.085 289.175 107.099 289.687 105.136C290.114 103.173 291.01 102.192 292.375 102.192C296.983 102.192 300.908 101.893 304.151 101.296C307.479 100.699 311.831 99.76 317.207 98.48L320.407 97.712L328.343 95.92C325.1 94.128 322.37 92.8053 320.151 91.952C317.762 91.0133 315.202 90.3733 312.471 90.032C309.74 89.6053 306.199 89.264 301.847 89.008L299.031 88.88L298.519 88.368C298.86 85.1253 299.5 81.5413 300.439 77.616C301.463 73.6053 302.444 70.6613 303.383 68.784C305.175 68.528 306.839 68.4 308.375 68.4C311.532 68.4 314.476 68.912 317.207 69.936C319.938 70.8747 322.711 72.24 325.527 74.032L330.007 76.976ZM322.583 62.512C320.791 61.8293 318.444 60.5067 315.543 58.544C312.642 56.496 310.636 54.7467 309.527 53.296C309.783 52.1867 310.423 50.6933 311.447 48.816C312.556 46.8533 313.794 45.104 315.159 43.568C316.524 41.9467 317.719 41.0507 318.743 40.88C319.682 40.7093 321.09 41.136 322.967 42.16C324.93 43.184 326.722 44.464 328.343 46C330.05 47.4507 330.988 48.6027 331.159 49.456C331.5 50.736 330.519 52.9973 328.215 56.24C325.996 59.3973 324.119 61.488 322.583 62.512Z"/>
</mask>
<path d="M82.944 102.192C84.3093 102.192 85.2053 103.173 85.632 105.136C86.144 107.099 86.4 110.085 86.4 114.096C86.4 118.192 86.144 121.221 85.632 123.184C85.12 125.061 84.224 126 82.944 126C81.92 126 81.0667 125.957 80.384 125.872C79.7867 137.051 77.0987 145.883 72.32 152.368C60.3733 155.952 49.792 157.744 40.576 157.744C28.6293 157.744 19.712 155.184 13.824 150.064C8.02133 145.029 5.12 137.861 5.12 128.56C5.12 119.259 7.808 108.037 13.184 94.896L30.976 100.656C27.8187 109.019 26.24 115.76 26.24 120.88C26.24 125.403 27.4773 128.731 29.952 130.864C32.4267 133.083 36.1387 134.192 41.088 134.192C45.6107 134.192 52.0533 133.168 60.416 131.12C59.904 125.488 58.9653 119.856 57.6 114.224C56.2347 108.507 54.6987 103.216 52.992 98.352L71.552 90.544L72.576 91.056C73.5147 94.2987 74.4533 96.7307 75.392 98.352C76.416 99.888 77.4827 100.912 78.592 101.424C79.7867 101.936 81.2373 102.192 82.944 102.192ZM43.264 88.368C41.472 87.6853 39.1253 86.3627 36.224 84.4C33.3227 82.352 31.3173 80.6027 30.208 79.152C30.464 78.0427 31.104 76.5493 32.128 74.672C33.2373 72.7093 34.4747 70.96 35.84 69.424C37.2053 67.8027 38.4 66.9067 39.424 66.736C40.3627 66.5653 41.7707 66.992 43.648 68.016C45.6107 69.04 47.4027 70.32 49.024 71.856C50.7307 73.3067 51.6693 74.4587 51.84 75.312C52.1813 76.592 51.2 78.8533 48.896 82.096C46.6773 85.2533 44.8 87.344 43.264 88.368ZM134.584 71.728L117.048 77.232C124.728 88.6667 128.568 99.4187 128.568 109.488C128.568 111.621 128.355 113.627 127.928 115.504C127.501 117.381 126.776 119.557 125.752 122.032C119.608 123.483 113.293 124.507 106.808 125.104C100.323 125.701 92.3867 126 83 126C81.72 126 80.824 125.061 80.312 123.184C79.8 121.221 79.544 118.192 79.544 114.096C79.544 110.085 79.8 107.099 80.312 105.136C80.7387 103.173 81.6347 102.192 83 102.192C93.1547 102.192 101.773 101.851 108.856 101.168C103.821 94.4267 98.232 89.0933 92.088 85.168V64.56L132.792 49.328L134.584 50.608V71.728ZM200.919 77.36C207.319 77.36 212.14 79.792 215.383 84.656C218.711 89.4347 220.375 95.8347 220.375 103.856C220.375 108.464 219.82 112.219 218.711 115.12C217.602 117.936 215.852 120.155 213.463 121.776C211.159 123.397 208.215 124.549 204.631 125.232C201.047 125.915 196.482 126.256 190.935 126.256C187.692 126.256 184.066 126.128 180.055 125.872C180.226 131.931 180.695 137.989 181.463 144.048C182.316 150.107 183.298 155.269 184.407 159.536C182.53 160.56 179.586 161.371 175.575 161.968C171.65 162.651 167.852 162.992 164.183 162.992L163.543 162.48C161.324 152.069 160.215 141.232 160.215 129.968C160.215 125.445 160.386 121.52 160.727 118.192C161.324 115.291 162.86 112.133 165.335 108.72C167.81 105.307 170.284 103.216 172.759 102.448L177.879 102.704C177.794 102.192 177.751 101.424 177.751 100.4C177.751 96.9013 178.604 93.4027 180.311 89.904C182.103 86.32 184.748 83.3333 188.247 80.944C191.746 78.5547 195.97 77.36 200.919 77.36ZM198.103 103.984C201.004 103.984 203.607 103.771 205.911 103.344C208.3 102.917 209.708 102.405 210.135 101.808C209.879 100.699 208.94 99.7173 207.319 98.864C205.783 97.9253 203.778 97.456 201.303 97.456C198.914 97.456 196.567 97.8827 194.263 98.736C192.044 99.5893 190.551 101.125 189.783 103.344C192.343 103.771 195.116 103.984 198.103 103.984ZM291.731 102.192C293.096 102.192 293.992 103.173 294.419 105.136C294.931 107.099 295.187 110.085 295.187 114.096C295.187 118.192 294.931 121.221 294.419 123.184C293.907 125.061 293.011 126 291.731 126C287.891 126 284.179 124.805 280.595 122.416C277.011 119.941 274.323 116.357 272.531 111.664C264.595 114.48 256.787 115.888 249.107 115.888C247.4 122.032 245.224 128.219 242.579 134.448C240.019 140.763 237.544 146.181 235.155 150.704C232.851 155.227 231.4 157.915 230.803 158.768C227.902 157.659 224.446 155.739 220.435 153.008C216.424 150.363 213.438 147.931 211.475 145.712C217.534 136.411 222.526 127.835 226.451 119.984C230.462 112.133 233.918 103.429 236.819 93.872C239.379 94.0427 241.342 94.128 242.707 94.128C253.288 94.128 264.51 92.0373 276.371 87.856C277.822 92.3787 279.87 95.92 282.515 98.48C285.16 100.955 288.232 102.192 291.731 102.192ZM262.163 127.536C263.102 127.365 264.51 127.792 266.387 128.816C268.35 129.84 270.142 131.077 271.763 132.528C273.47 134.064 274.408 135.259 274.579 136.112C274.92 137.392 273.939 139.611 271.635 142.768C269.416 146.011 267.539 148.144 266.003 149.168C264.211 148.485 261.864 147.12 258.963 145.072C256.062 143.109 254.056 141.403 252.947 139.952C253.203 138.843 253.843 137.307 254.867 135.344C255.976 133.467 257.214 131.717 258.579 130.096C259.944 128.56 261.139 127.707 262.163 127.536ZM330.007 76.976C337.175 81.584 342.594 84.9973 346.263 87.216C349.932 89.3493 352.535 90.416 354.071 90.416C353.815 95.28 353.26 99.4187 352.407 102.832C351.639 106.16 350.316 110 348.439 114.352C346.22 114.181 344.599 114.096 343.575 114.096C338.54 114.096 332.994 115.163 326.935 117.296C324.631 118.149 322.498 118.96 320.535 119.728C315.33 121.776 310.679 123.355 306.583 124.464C302.487 125.488 297.751 126 292.375 126C291.095 126 290.199 125.061 289.687 123.184C289.175 121.221 288.919 118.192 288.919 114.096C288.919 110.085 289.175 107.099 289.687 105.136C290.114 103.173 291.01 102.192 292.375 102.192C296.983 102.192 300.908 101.893 304.151 101.296C307.479 100.699 311.831 99.76 317.207 98.48L320.407 97.712L328.343 95.92C325.1 94.128 322.37 92.8053 320.151 91.952C317.762 91.0133 315.202 90.3733 312.471 90.032C309.74 89.6053 306.199 89.264 301.847 89.008L299.031 88.88L298.519 88.368C298.86 85.1253 299.5 81.5413 300.439 77.616C301.463 73.6053 302.444 70.6613 303.383 68.784C305.175 68.528 306.839 68.4 308.375 68.4C311.532 68.4 314.476 68.912 317.207 69.936C319.938 70.8747 322.711 72.24 325.527 74.032L330.007 76.976ZM322.583 62.512C320.791 61.8293 318.444 60.5067 315.543 58.544C312.642 56.496 310.636 54.7467 309.527 53.296C309.783 52.1867 310.423 50.6933 311.447 48.816C312.556 46.8533 313.794 45.104 315.159 43.568C316.524 41.9467 317.719 41.0507 318.743 40.88C319.682 40.7093 321.09 41.136 322.967 42.16C324.93 43.184 326.722 44.464 328.343 46C330.05 47.4507 330.988 48.6027 331.159 49.456C331.5 50.736 330.519 52.9973 328.215 56.24C325.996 59.3973 324.119 61.488 322.583 62.512Z" fill="white"/>
<path d="M85.632 105.136L81.7233 105.986L81.7408 106.066L81.7615 106.146L85.632 105.136ZM85.632 123.184L89.4911 124.236L89.4969 124.215L89.5025 124.194L85.632 123.184ZM80.384 125.872L80.8801 121.903L76.6189 121.37L76.3897 125.659L80.384 125.872ZM72.32 152.368L73.4694 156.199L74.7482 155.816L75.5402 154.741L72.32 152.368ZM13.824 150.064L16.4487 147.046L16.4454 147.043L13.824 150.064ZM13.184 94.896L14.416 91.0905L10.8865 89.9478L9.48181 93.3815L13.184 94.896ZM30.976 100.656L34.7182 102.069L36.2004 98.143L32.208 96.8505L30.976 100.656ZM29.952 130.864L32.6222 127.886L32.5932 127.86L32.5638 127.834L29.952 130.864ZM60.416 131.12L61.3675 135.005L64.7113 134.186L64.3996 130.758L60.416 131.12ZM57.6 114.224L53.7094 115.153L53.7126 115.166L57.6 114.224ZM52.992 98.352L51.4409 94.665L47.9714 96.1246L49.2176 99.6763L52.992 98.352ZM71.552 90.544L73.3409 86.9663L71.696 86.1439L70.0009 86.857L71.552 90.544ZM72.576 91.056L76.4183 89.9438L75.9313 88.2615L74.3649 87.4783L72.576 91.056ZM75.392 98.352L71.9303 100.356L71.9937 100.466L72.0638 100.571L75.392 98.352ZM78.592 101.424L76.9158 105.056L76.9657 105.079L77.0163 105.101L78.592 101.424ZM43.264 88.368L41.84 92.1059L43.767 92.84L45.4828 91.6962L43.264 88.368ZM36.224 84.4L33.9173 87.6679L33.9498 87.6908L33.9828 87.7131L36.224 84.4ZM30.208 79.152L26.3104 78.2526L25.8872 80.0866L27.0306 81.5818L30.208 79.152ZM32.128 74.672L28.6458 72.7038L28.6309 72.7301L28.6164 72.7566L32.128 74.672ZM35.84 69.424L38.8296 72.0815L38.8652 72.0415L38.8996 72.0005L35.84 69.424ZM39.424 66.736L40.0816 70.6816L40.1106 70.6767L40.1395 70.6715L39.424 66.736ZM43.648 68.016L41.7326 71.5276L41.765 71.5453L41.7977 71.5623L43.648 68.016ZM49.024 71.856L46.273 74.7598L46.3513 74.8339L46.4334 74.9038L49.024 71.856ZM51.84 75.312L47.9177 76.0965L47.9425 76.2205L47.9751 76.3426L51.84 75.312ZM48.896 82.096L45.6353 79.7792L45.6292 79.7877L45.6232 79.7962L48.896 82.096ZM82.944 106.192C82.7968 106.192 82.5592 106.163 82.2876 106.045C82.0135 105.926 81.8122 105.763 81.6861 105.625C81.5701 105.498 81.548 105.426 81.5753 105.487C81.6031 105.549 81.662 105.704 81.7233 105.986L89.5407 104.286C89.2483 102.941 88.7006 101.443 87.5939 100.231C86.3648 98.8847 84.7156 98.192 82.944 98.192V106.192ZM81.7615 106.146C82.1398 107.596 82.4 110.163 82.4 114.096H90.4C90.4 110.008 90.1482 106.602 89.5025 104.126L81.7615 106.146ZM82.4 114.096C82.4 118.123 82.1387 120.728 81.7615 122.174L89.5025 124.194C90.1493 121.714 90.4 118.261 90.4 114.096H82.4ZM81.7729 122.132C81.6987 122.404 81.6328 122.558 81.5983 122.627C81.564 122.696 81.5799 122.642 81.6826 122.534C81.7939 122.418 81.9814 122.266 82.2476 122.151C82.515 122.036 82.7633 122 82.944 122V130C84.6941 130 86.2784 129.306 87.4694 128.058C88.5491 126.927 89.1406 125.521 89.4911 124.236L81.7729 122.132ZM82.944 122C82.0142 122 81.3398 121.96 80.8801 121.903L79.8879 129.841C80.7935 129.954 81.8258 130 82.944 130V122ZM76.3897 125.659C75.8184 136.35 73.2673 144.339 69.0998 149.995L75.5402 154.741C80.9301 147.426 83.755 137.751 84.3783 126.085L76.3897 125.659ZM71.1706 148.537C59.4745 152.046 49.2929 153.744 40.576 153.744V161.744C50.2912 161.744 61.2721 159.858 73.4694 156.199L71.1706 148.537ZM40.576 153.744C29.1019 153.744 21.3079 151.271 16.4487 147.046L11.1993 153.082C18.1161 159.097 28.1568 161.744 40.576 161.744V153.744ZM16.4454 147.043C11.7016 142.927 9.12 136.969 9.12 128.56H1.12C1.12 138.754 4.34104 147.132 11.2026 153.085L16.4454 147.043ZM9.12 128.56C9.12 119.977 11.6138 109.299 16.8862 96.4105L9.48181 93.3815C4.00219 106.776 1.12 118.54 1.12 128.56H9.12ZM11.952 98.7015L29.744 104.462L32.208 96.8505L14.416 91.0905L11.952 98.7015ZM27.2338 99.2431C24.0137 107.772 22.24 115.045 22.24 120.88H30.24C30.24 116.475 31.6236 110.265 34.7182 102.069L27.2338 99.2431ZM22.24 120.88C22.24 126.1 23.6832 130.741 27.3402 133.894L32.5638 127.834C31.2714 126.72 30.24 124.706 30.24 120.88H22.24ZM27.2818 133.842C30.7778 136.977 35.6233 138.192 41.088 138.192V130.192C36.654 130.192 34.0755 129.189 32.6222 127.886L27.2818 133.842ZM41.088 138.192C46.1015 138.192 52.9197 137.074 61.3675 135.005L59.4645 127.235C51.187 129.262 45.1198 130.192 41.088 130.192V138.192ZM64.3996 130.758C63.8694 124.926 62.8979 119.1 61.4874 113.282L53.7126 115.166C55.0328 120.612 55.9386 126.05 56.4324 131.482L64.3996 130.758ZM61.4906 113.295C60.0977 107.462 58.5243 102.038 56.7664 97.0276L49.2176 99.6763C50.873 104.394 52.3717 109.551 53.7094 115.153L61.4906 113.295ZM54.5431 102.039L73.1031 94.231L70.0009 86.857L51.4409 94.665L54.5431 102.039ZM69.7631 94.1217L70.7871 94.6337L74.3649 87.4783L73.3409 86.9663L69.7631 94.1217ZM68.7337 92.1682C69.703 95.5165 70.7485 98.3149 71.9303 100.356L78.8537 96.3478C78.1582 95.1465 77.3264 93.0808 76.4183 89.9438L68.7337 92.1682ZM72.0638 100.571C73.3032 102.43 74.8766 104.115 76.9158 105.056L80.2682 97.7922C80.0887 97.7093 79.5288 97.3461 78.7202 96.1332L72.0638 100.571ZM77.0163 105.101C78.8385 105.882 80.8571 106.192 82.944 106.192V98.192C81.6176 98.192 80.7349 97.9905 80.1677 97.7474L77.0163 105.101ZM44.688 84.6301C43.329 84.1123 41.2841 82.9937 38.4652 81.0869L33.9828 87.7131C36.9666 89.7316 39.615 91.2583 41.84 92.1059L44.688 84.6301ZM38.5307 81.1321C35.71 79.141 34.1139 77.6748 33.3854 76.7222L27.0306 81.5818C28.5208 83.5305 30.9354 85.563 33.9173 87.6679L38.5307 81.1321ZM34.1056 80.0514C34.2368 79.4826 34.6657 78.3729 35.6396 76.5874L28.6164 72.7566C27.5423 74.7257 26.6912 76.6027 26.3104 78.2526L34.1056 80.0514ZM35.6103 76.6402C36.5935 74.9006 37.6696 73.3865 38.8296 72.0815L32.8504 66.7665C31.2797 68.5335 29.8811 70.5181 28.6458 72.7038L35.6103 76.6402ZM38.8996 72.0005C39.4612 71.3337 39.8831 70.9437 40.16 70.736C40.4543 70.5153 40.4176 70.6256 40.0816 70.6816L38.7664 62.7904C36.2225 63.2144 34.2219 65.1356 32.7804 66.8475L38.8996 72.0005ZM40.1395 70.6715C39.7359 70.7449 39.6288 70.6364 40.024 70.7561C40.3774 70.8632 40.9364 71.0933 41.7326 71.5276L45.5634 64.5044C44.4822 63.9147 43.3986 63.4195 42.344 63.0999C41.3312 62.793 40.0508 62.5565 38.7085 62.8005L40.1395 70.6715ZM41.7977 71.5623C43.4289 72.4134 44.9183 73.4764 46.273 74.7598L51.775 68.9522C49.887 67.1636 47.7924 65.6666 45.4983 64.4697L41.7977 71.5623ZM46.4334 74.9038C47.1843 75.542 47.6479 76.0167 47.9071 76.3347C48.033 76.4892 48.0725 76.5605 48.0679 76.5522C48.0666 76.55 47.9766 76.3911 47.9177 76.0965L55.7623 74.5275C55.4886 73.1588 54.736 72.0509 54.1089 71.2813C53.4294 70.4473 52.5703 69.6206 51.6146 68.8082L46.4334 74.9038ZM47.9751 76.3426C47.8647 75.9288 47.9226 75.6846 47.9118 75.7446C47.9024 75.7963 47.8551 75.9967 47.6906 76.3756C47.3569 77.1447 46.7114 78.2646 45.6353 79.7792L52.1567 84.4128C53.3846 82.6847 54.3818 81.0526 55.0294 79.5604C55.6097 78.2231 56.2368 76.2759 55.7049 74.2813L47.9751 76.3426ZM45.6232 79.7962C43.4473 82.8928 41.9241 84.4539 41.0452 85.0398L45.4828 91.6962C47.676 90.2341 49.9074 87.6139 52.1688 84.3958L45.6232 79.7962ZM134.584 71.728L135.782 75.5444L138.584 74.6649V71.728H134.584ZM117.048 77.232L115.85 73.4156L110.743 75.0186L113.727 79.4622L117.048 77.232ZM125.752 122.032L126.671 125.925L128.665 125.454L129.448 123.561L125.752 122.032ZM106.808 125.104L106.441 121.121L106.808 125.104ZM80.312 123.184L76.4415 124.194L76.4471 124.215L76.4529 124.236L80.312 123.184ZM80.312 105.136L84.1825 106.146L84.2032 106.066L84.2207 105.986L80.312 105.136ZM108.856 101.168L109.24 105.15L116.313 104.468L112.061 98.7745L108.856 101.168ZM92.088 85.168H88.088V87.3591L89.9344 88.5388L92.088 85.168ZM92.088 64.56L90.6861 60.8137L88.088 61.786V64.56H92.088ZM132.792 49.328L135.117 46.0731L133.384 44.8354L131.39 45.5817L132.792 49.328ZM134.584 50.608H138.584V48.5495L136.909 47.3531L134.584 50.608ZM133.386 67.9116L115.85 73.4156L118.246 81.0484L135.782 75.5444L133.386 67.9116ZM113.727 79.4622C121.123 90.4733 124.568 100.456 124.568 109.488H132.568C132.568 98.3811 128.333 86.86 120.369 75.0018L113.727 79.4622ZM124.568 109.488C124.568 111.355 124.381 113.06 124.027 114.618L131.829 116.39C132.328 114.193 132.568 111.888 132.568 109.488H124.568ZM124.027 114.618C123.666 116.209 123.024 118.162 122.056 120.503L129.448 123.561C130.528 120.953 131.337 118.554 131.829 116.39L124.027 114.618ZM124.833 118.139C118.876 119.545 112.746 120.54 106.441 121.121L107.175 129.087C113.84 128.473 120.34 127.42 126.671 125.925L124.833 118.139ZM106.441 121.121C100.118 121.703 92.3125 122 83 122V130C92.4608 130 100.527 129.699 107.175 129.087L106.441 121.121ZM83 122C83.1807 122 83.429 122.036 83.6964 122.151C83.9626 122.266 84.1501 122.418 84.2614 122.534C84.3641 122.642 84.38 122.696 84.3457 122.627C84.3112 122.558 84.2453 122.404 84.1711 122.132L76.4529 124.236C76.8034 125.521 77.3949 126.927 78.4746 128.058C79.6656 129.306 81.2499 130 83 130V122ZM84.1825 122.174C83.8053 120.728 83.544 118.123 83.544 114.096H75.544C75.544 118.261 75.7947 121.714 76.4415 124.194L84.1825 122.174ZM83.544 114.096C83.544 110.163 83.8042 107.596 84.1825 106.146L76.4415 104.126C75.7958 106.602 75.544 110.008 75.544 114.096H83.544ZM84.2207 105.986C84.282 105.704 84.3409 105.549 84.3687 105.487C84.396 105.426 84.3739 105.498 84.2579 105.625C84.1318 105.763 83.9305 105.926 83.6564 106.045C83.3848 106.163 83.1472 106.192 83 106.192V98.192C81.2284 98.192 79.5792 98.8847 78.3501 100.231C77.2434 101.443 76.6957 102.941 76.4033 104.286L84.2207 105.986ZM83 106.192C93.2337 106.192 101.989 105.848 109.24 105.15L108.472 97.1865C101.558 97.8529 93.0757 98.192 83 98.192V106.192ZM112.061 98.7745C106.781 91.7053 100.849 86.019 94.2416 81.7972L89.9344 88.5388C95.6145 92.1677 100.861 97.148 105.651 103.562L112.061 98.7745ZM96.088 85.168V64.56H88.088V85.168H96.088ZM93.4899 68.3063L134.194 53.0743L131.39 45.5817L90.6861 60.8137L93.4899 68.3063ZM130.467 52.5829L132.259 53.8629L136.909 47.3531L135.117 46.0731L130.467 52.5829ZM130.584 50.608V71.728H138.584V50.608H130.584ZM215.383 84.656L212.055 86.8748L212.077 86.9086L212.101 86.942L215.383 84.656ZM218.711 115.12L222.433 116.586L222.44 116.567L222.447 116.549L218.711 115.12ZM213.463 121.776L211.217 118.466L211.189 118.485L211.161 118.505L213.463 121.776ZM204.631 125.232L203.883 121.303L204.631 125.232ZM180.055 125.872L180.31 121.88L175.933 121.601L176.057 125.985L180.055 125.872ZM181.463 144.048L177.495 144.551L177.498 144.578L177.502 144.606L181.463 144.048ZM184.407 159.536L186.322 163.048L189.064 161.552L188.278 158.529L184.407 159.536ZM175.575 161.968L174.986 158.012L174.938 158.019L174.89 158.027L175.575 161.968ZM164.183 162.992L161.684 166.115L162.78 166.992H164.183V162.992ZM163.543 162.48L159.631 163.314L159.929 164.711L161.044 165.603L163.543 162.48ZM160.727 118.192L156.809 117.385L156.768 117.583L156.748 117.784L160.727 118.192ZM165.335 108.72L162.097 106.372L165.335 108.72ZM172.759 102.448L172.959 98.453L172.251 98.4176L171.573 98.6277L172.759 102.448ZM177.879 102.704L177.679 106.699L182.641 106.947L181.825 102.046L177.879 102.704ZM180.311 89.904L176.733 88.1151L176.725 88.1327L176.716 88.1503L180.311 89.904ZM188.247 80.944L185.991 77.6408L188.247 80.944ZM205.911 103.344L205.208 99.4063L205.195 99.4085L205.183 99.4109L205.911 103.344ZM210.135 101.808L213.39 104.133L214.438 102.666L214.033 100.909L210.135 101.808ZM207.319 98.864L205.233 102.277L205.343 102.344L205.456 102.404L207.319 98.864ZM194.263 98.736L192.874 94.985L192.85 94.9937L192.827 95.0026L194.263 98.736ZM189.783 103.344L186.003 102.036L184.454 106.511L189.125 107.29L189.783 103.344ZM200.919 81.36C206.131 81.36 209.633 83.2427 212.055 86.8748L218.711 82.4372C214.647 76.3413 208.507 73.36 200.919 73.36V81.36ZM212.101 86.942C214.815 90.8397 216.375 96.3518 216.375 103.856H224.375C224.375 95.3176 222.607 88.0297 218.665 82.37L212.101 86.942ZM216.375 103.856C216.375 108.19 215.847 111.41 214.975 113.691L222.447 116.549C223.794 113.027 224.375 108.738 224.375 103.856H216.375ZM214.989 113.654C214.16 115.759 212.907 117.319 211.217 118.466L215.709 125.086C218.798 122.99 221.043 120.113 222.433 116.586L214.989 113.654ZM211.161 118.505C209.438 119.717 207.066 120.696 203.883 121.303L205.379 129.161C209.364 128.402 212.88 127.077 215.765 125.047L211.161 118.505ZM203.883 121.303C200.637 121.921 196.346 122.256 190.935 122.256V130.256C196.618 130.256 201.457 129.909 205.379 129.161L203.883 121.303ZM190.935 122.256C187.795 122.256 184.255 122.132 180.31 121.88L179.8 129.864C183.877 130.124 187.59 130.256 190.935 130.256V122.256ZM176.057 125.985C176.231 132.175 176.71 138.364 177.495 144.551L185.431 143.545C184.68 137.615 184.22 131.687 184.053 125.759L176.057 125.985ZM177.502 144.606C178.369 150.762 179.376 156.084 180.536 160.543L188.278 158.529C187.219 154.455 186.263 149.451 185.424 143.49L177.502 144.606ZM182.492 156.024C181.247 156.703 178.871 157.433 174.986 158.012L176.164 165.924C180.3 165.308 183.812 164.417 186.322 163.048L182.492 156.024ZM174.89 158.027C171.172 158.674 167.604 158.992 164.183 158.992V166.992C168.101 166.992 172.128 166.628 176.26 165.909L174.89 158.027ZM166.682 159.869L166.042 159.357L161.044 165.603L161.684 166.115L166.682 159.869ZM167.455 161.646C165.298 151.525 164.215 140.968 164.215 129.968H156.215C156.215 141.496 157.35 152.614 159.631 163.314L167.455 161.646ZM164.215 129.968C164.215 125.538 164.383 121.755 164.706 118.6L156.748 117.784C156.389 121.285 156.215 125.353 156.215 129.968H164.215ZM164.645 118.999C165.09 116.837 166.301 114.202 168.573 111.068L162.097 106.372C159.419 110.065 157.559 113.745 156.809 117.385L164.645 118.999ZM168.573 111.068C170.833 107.951 172.67 106.664 173.945 106.268L171.573 98.6277C167.899 99.7681 164.786 102.662 162.097 106.372L168.573 111.068ZM172.559 106.443L177.679 106.699L178.079 98.709L172.959 98.453L172.559 106.443ZM181.825 102.046C181.795 101.871 181.751 101.372 181.751 100.4H173.751C173.751 101.476 173.792 102.513 173.933 103.362L181.825 102.046ZM181.751 100.4C181.751 97.5746 182.436 94.6723 183.906 91.6577L176.716 88.1503C174.773 92.133 173.751 96.228 173.751 100.4H181.751ZM183.889 91.6929C185.359 88.7531 187.533 86.2753 190.503 84.2472L185.991 77.6408C181.964 80.3914 178.847 83.8869 176.733 88.1151L183.889 91.6929ZM190.503 84.2472C193.231 82.3843 196.636 81.36 200.919 81.36V73.36C195.304 73.36 190.261 74.725 185.991 77.6408L190.503 84.2472ZM198.103 107.984C201.194 107.984 204.046 107.757 206.639 107.277L205.183 99.4109C203.168 99.784 200.815 99.984 198.103 99.984V107.984ZM206.614 107.282C207.915 107.049 209.116 106.767 210.126 106.399C210.941 106.103 212.422 105.488 213.39 104.133L206.88 99.483C207.2 99.0347 207.521 98.8412 207.561 98.8171C207.623 98.7798 207.588 98.8096 207.392 98.8808C206.994 99.0255 206.297 99.2118 205.208 99.4063L206.614 107.282ZM214.033 100.909C213.391 98.1275 211.217 96.3951 209.182 95.3243L205.456 102.404C206.009 102.695 206.261 102.914 206.348 103.005C206.417 103.076 206.3 102.978 206.237 102.707L214.033 100.909ZM209.405 95.4509C207.048 94.0104 204.249 93.456 201.303 93.456V101.456C203.307 101.456 204.518 101.84 205.233 102.277L209.405 95.4509ZM201.303 93.456C198.426 93.456 195.61 93.9717 192.874 94.985L195.652 102.487C197.524 101.794 199.401 101.456 201.303 101.456V93.456ZM192.827 95.0026C189.524 96.2731 187.162 98.6866 186.003 102.036L193.563 104.652C193.94 103.564 194.565 102.906 195.699 102.469L192.827 95.0026ZM189.125 107.29C191.932 107.757 194.928 107.984 198.103 107.984V99.984C195.305 99.984 192.754 99.7839 190.441 99.3984L189.125 107.29ZM294.419 105.136L290.51 105.986L290.528 106.066L290.549 106.146L294.419 105.136ZM294.419 123.184L298.278 124.236L298.284 124.215L298.289 124.194L294.419 123.184ZM280.595 122.416L278.322 125.708L278.349 125.726L278.376 125.744L280.595 122.416ZM272.531 111.664L276.268 110.237L274.875 106.588L271.193 107.894L272.531 111.664ZM249.107 115.888V111.888H246.067L245.253 114.817L249.107 115.888ZM242.579 134.448L238.897 132.885L238.884 132.915L238.872 132.945L242.579 134.448ZM235.155 150.704L231.618 148.836L231.604 148.862L231.591 148.888L235.155 150.704ZM230.803 158.768L229.374 162.504L232.29 163.619L234.08 161.062L230.803 158.768ZM220.435 153.008L222.686 149.702L222.662 149.685L222.637 149.669L220.435 153.008ZM211.475 145.712L208.123 143.529L206.461 146.081L208.479 148.362L211.475 145.712ZM226.451 119.984L222.889 118.164L222.881 118.18L222.873 118.195L226.451 119.984ZM236.819 93.872L237.085 89.8809L233.915 89.6695L232.991 92.7101L236.819 93.872ZM276.371 87.856L280.18 86.6343L278.923 82.7152L275.041 84.0835L276.371 87.856ZM282.515 98.48L279.733 101.354L279.758 101.378L279.782 101.401L282.515 98.48ZM262.163 127.536L262.821 131.482L262.85 131.477L262.879 131.471L262.163 127.536ZM266.387 128.816L264.472 132.328L264.504 132.345L264.537 132.362L266.387 128.816ZM271.763 132.528L274.439 129.555L274.43 129.547L271.763 132.528ZM274.579 136.112L270.657 136.896L270.681 137.02L270.714 137.143L274.579 136.112ZM271.635 142.768L268.404 140.41L268.368 140.459L268.334 140.509L271.635 142.768ZM266.003 149.168L264.579 152.906L266.506 153.64L268.222 152.496L266.003 149.168ZM258.963 145.072L261.27 141.804L261.237 141.781L261.204 141.759L258.963 145.072ZM252.947 139.952L249.049 139.053L248.626 140.887L249.77 142.382L252.947 139.952ZM254.867 135.344L251.423 133.309L251.37 133.4L251.321 133.494L254.867 135.344ZM258.579 130.096L255.589 127.439L255.554 127.479L255.519 127.519L258.579 130.096ZM291.731 106.192C291.584 106.192 291.346 106.163 291.075 106.045C290.801 105.926 290.599 105.763 290.473 105.625C290.357 105.498 290.335 105.426 290.362 105.487C290.39 105.549 290.449 105.704 290.51 105.986L298.328 104.286C298.035 102.941 297.488 101.443 296.381 100.231C295.152 98.8847 293.503 98.192 291.731 98.192V106.192ZM290.549 106.146C290.927 107.596 291.187 110.163 291.187 114.096H299.187C299.187 110.008 298.935 106.602 298.289 104.126L290.549 106.146ZM291.187 114.096C291.187 118.123 290.926 120.728 290.549 122.174L298.289 124.194C298.936 121.714 299.187 118.261 299.187 114.096H291.187ZM290.56 122.132C290.486 122.404 290.42 122.558 290.385 122.627C290.351 122.696 290.367 122.642 290.47 122.534C290.581 122.418 290.768 122.266 291.035 122.151C291.302 122.036 291.55 122 291.731 122V130C293.481 130 295.065 129.306 296.256 128.058C297.336 126.927 297.928 125.521 298.278 124.236L290.56 122.132ZM291.731 122C288.775 122 285.824 121.094 282.814 119.088L278.376 125.744C282.534 128.516 287.007 130 291.731 130V122ZM282.868 119.124C280.047 117.177 277.817 114.295 276.268 110.237L268.794 113.091C270.829 118.42 273.975 122.706 278.322 125.708L282.868 119.124ZM271.193 107.894C263.646 110.573 256.289 111.888 249.107 111.888V119.888C257.285 119.888 265.544 118.387 273.869 115.434L271.193 107.894ZM245.253 114.817C243.596 120.784 241.479 126.806 238.897 132.885L246.261 136.011C248.97 129.632 251.205 123.28 252.961 116.959L245.253 114.817ZM238.872 132.945C236.347 139.173 233.928 144.463 231.618 148.836L238.692 152.572C241.161 147.899 243.691 142.352 246.286 135.951L238.872 132.945ZM231.591 148.888C229.223 153.537 227.922 155.909 227.526 156.474L234.08 161.062C234.879 159.921 236.479 156.917 238.719 152.52L231.591 148.888ZM232.232 155.032C229.735 154.077 226.566 152.343 222.686 149.702L218.184 156.314C222.325 159.134 226.069 161.24 229.374 162.504L232.232 155.032ZM222.637 149.669C218.763 147.113 216.102 144.905 214.471 143.062L208.479 148.362C210.773 150.956 214.086 153.612 218.233 156.347L222.637 149.669ZM214.827 147.895C220.948 138.498 226.021 129.789 230.029 121.773L222.873 118.195C219.031 125.88 214.12 134.323 208.123 143.529L214.827 147.895ZM230.013 121.804C234.145 113.716 237.685 104.789 240.647 95.0339L232.991 92.7101C230.15 102.07 226.779 110.55 222.889 118.164L230.013 121.804ZM236.553 97.8631C239.139 98.0356 241.207 98.128 242.707 98.128V90.128C241.476 90.128 239.619 90.0498 237.085 89.8809L236.553 97.8631ZM242.707 98.128C253.818 98.128 265.491 95.9327 277.701 91.6285L275.041 84.0835C263.529 88.1419 252.759 90.128 242.707 90.128V98.128ZM272.562 89.0777C274.157 94.0506 276.497 98.2227 279.733 101.354L285.297 95.6056C283.242 93.6173 281.486 90.7067 280.18 86.6343L272.562 89.0777ZM279.782 101.401C283.14 104.542 287.179 106.192 291.731 106.192V98.192C289.286 98.192 287.181 97.3674 285.248 95.5589L279.782 101.401ZM262.879 131.471C262.475 131.545 262.368 131.436 262.763 131.556C263.116 131.663 263.675 131.893 264.472 132.328L268.302 125.304C267.221 124.715 266.138 124.219 265.083 123.9C264.07 123.593 262.79 123.356 261.447 123.601L262.879 131.471ZM264.537 132.362C266.21 133.235 267.727 134.284 269.096 135.509L274.43 129.547C272.557 127.871 270.489 126.445 268.237 125.27L264.537 132.362ZM269.087 135.501C269.847 136.185 270.326 136.697 270.602 137.047C270.666 137.13 270.713 137.194 270.745 137.242C270.76 137.265 270.772 137.283 270.779 137.295C270.787 137.307 270.79 137.313 270.79 137.313C270.79 137.313 270.785 137.305 270.778 137.29C270.771 137.274 270.76 137.25 270.748 137.218C270.723 137.154 270.686 137.045 270.657 136.896L278.501 135.328C278.233 133.985 277.5 132.879 276.892 132.105C276.229 131.261 275.386 130.407 274.439 129.555L269.087 135.501ZM270.714 137.143C270.604 136.731 270.661 136.483 270.652 136.528C270.645 136.567 270.602 136.754 270.441 137.118C270.114 137.857 269.476 138.941 268.404 140.41L274.866 145.126C276.098 143.438 277.103 141.833 277.757 140.354C278.347 139.021 278.977 137.082 278.444 135.081L270.714 137.143ZM268.334 140.509C266.152 143.698 264.636 145.272 263.784 145.84L268.222 152.496C270.442 151.016 272.681 148.323 274.936 145.027L268.334 140.509ZM267.427 145.43C266.108 144.928 264.087 143.793 261.27 141.804L256.656 148.34C259.641 150.447 262.314 152.043 264.579 152.906L267.427 145.43ZM261.204 141.759C258.395 139.859 256.83 138.445 256.124 137.522L249.77 142.382C251.283 144.361 253.728 146.36 256.722 148.385L261.204 141.759ZM256.845 140.851C256.983 140.253 257.428 139.083 258.413 137.194L251.321 133.494C250.258 135.531 249.423 137.433 249.049 139.053L256.845 140.851ZM258.311 137.379C259.31 135.687 260.42 134.119 261.639 132.673L255.519 127.519C254.007 129.315 252.642 131.246 251.423 133.309L258.311 137.379ZM261.569 132.753C262.125 132.127 262.545 131.758 262.824 131.559C263.117 131.349 263.106 131.434 262.821 131.482L261.505 123.59C259.042 124.001 257.058 125.787 255.589 127.439L261.569 132.753ZM330.007 76.976L327.81 80.3188L327.827 80.3298L327.844 80.3407L330.007 76.976ZM346.263 87.216L344.193 90.6389L344.223 90.6567L344.253 90.674L346.263 87.216ZM354.071 90.416L358.065 90.6262L358.287 86.416H354.071V90.416ZM352.407 102.832L348.526 101.862L348.518 101.897L348.509 101.933L352.407 102.832ZM348.439 114.352L348.132 118.34L350.98 118.559L352.112 115.936L348.439 114.352ZM326.935 117.296L325.607 113.523L325.576 113.534L325.546 113.545L326.935 117.296ZM320.535 119.728L319.077 116.003L319.07 116.006L320.535 119.728ZM306.583 124.464L307.553 128.345L307.591 128.335L307.629 128.325L306.583 124.464ZM289.687 123.184L285.817 124.194L285.822 124.215L285.828 124.236L289.687 123.184ZM289.687 105.136L293.557 106.146L293.578 106.066L293.596 105.986L289.687 105.136ZM304.151 101.296L303.444 97.3589L303.435 97.3605L303.426 97.3622L304.151 101.296ZM317.207 98.48L318.133 102.371L318.141 102.37L317.207 98.48ZM320.407 97.712L319.526 93.8102L319.5 93.8162L319.474 93.8224L320.407 97.712ZM328.343 95.92L329.224 99.8218L339.482 97.5055L330.278 92.419L328.343 95.92ZM320.151 91.952L318.688 95.675L318.702 95.6802L318.715 95.6854L320.151 91.952ZM312.471 90.032L311.853 93.984L311.914 93.9935L311.975 94.0011L312.471 90.032ZM301.847 89.008L302.082 85.0149L302.055 85.0133L302.029 85.0121L301.847 89.008ZM299.031 88.88L296.203 91.7084L297.3 92.8054L298.849 92.8759L299.031 88.88ZM298.519 88.368L294.541 87.9493L294.341 89.8471L295.691 91.1964L298.519 88.368ZM300.439 77.616L296.563 76.6265L296.556 76.656L296.549 76.6857L300.439 77.616ZM303.383 68.784L302.817 64.8242L300.743 65.1206L299.805 66.9951L303.383 68.784ZM317.207 69.936L315.803 73.6813L315.854 73.7008L315.907 73.7187L317.207 69.936ZM325.527 74.032L327.724 70.6892L327.699 70.6731L327.674 70.6573L325.527 74.032ZM322.583 62.512L321.159 66.2499L323.086 66.984L324.802 65.8402L322.583 62.512ZM315.543 58.544L313.236 61.8119L313.269 61.8348L313.302 61.8571L315.543 58.544ZM309.527 53.296L305.629 52.3966L305.206 54.2306L306.35 55.7258L309.527 53.296ZM311.447 48.816L307.965 46.8478L307.95 46.8741L307.935 46.9006L311.447 48.816ZM315.159 43.568L318.149 46.2254L318.184 46.1855L318.219 46.1445L315.159 43.568ZM318.743 40.88L319.401 44.8256L319.43 44.8207L319.459 44.8155L318.743 40.88ZM322.967 42.16L321.052 45.6716L321.084 45.6893L321.117 45.7063L322.967 42.16ZM328.343 46L325.592 48.9038L325.67 48.9779L325.752 49.0478L328.343 46ZM331.159 49.456L327.237 50.2404L327.261 50.3645L327.294 50.4866L331.159 49.456ZM328.215 56.24L324.954 53.9232L324.948 53.9317L324.942 53.9402L328.215 56.24ZM327.844 80.3407C335.019 84.9533 340.475 88.3908 344.193 90.6389L348.333 83.7931C344.712 81.6039 339.331 78.2147 332.17 73.6113L327.844 80.3407ZM344.253 90.674C346.175 91.7916 347.917 92.6888 349.45 93.3172C350.9 93.9114 352.515 94.416 354.071 94.416V86.416C354.091 86.416 353.637 86.3873 352.484 85.9148C351.415 85.4766 350.021 84.7737 348.273 83.758L344.253 90.674ZM350.077 90.2058C349.829 94.9033 349.299 98.7719 348.526 101.862L356.288 103.802C357.222 100.065 357.801 95.6567 358.065 90.6262L350.077 90.2058ZM348.509 101.933C347.812 104.956 346.582 108.559 344.766 112.768L352.112 115.936C354.051 111.441 355.466 107.364 356.305 103.731L348.509 101.933ZM348.746 110.364C346.515 110.192 344.763 110.096 343.575 110.096V118.096C344.435 118.096 345.926 118.171 348.132 118.34L348.746 110.364ZM343.575 110.096C337.983 110.096 331.98 111.279 325.607 113.523L328.263 121.069C334.007 119.046 339.098 118.096 343.575 118.096V110.096ZM325.546 113.545C323.223 114.405 321.066 115.225 319.077 116.003L321.993 123.453C323.929 122.695 326.039 121.893 328.324 121.047L325.546 113.545ZM319.07 116.006C313.962 118.016 309.455 119.542 305.537 120.603L307.629 128.325C311.903 127.167 316.697 125.536 322 123.45L319.07 116.006ZM305.613 120.583C301.907 121.51 297.508 122 292.375 122V130C297.994 130 303.067 129.466 307.553 128.345L305.613 120.583ZM292.375 122C292.556 122 292.804 122.036 293.071 122.151C293.338 122.266 293.525 122.418 293.636 122.534C293.739 122.642 293.755 122.696 293.721 122.627C293.686 122.558 293.62 122.404 293.546 122.132L285.828 124.236C286.178 125.521 286.77 126.927 287.85 128.058C289.041 129.306 290.625 130 292.375 130V122ZM293.557 122.174C293.18 120.728 292.919 118.123 292.919 114.096H284.919C284.919 118.261 285.17 121.714 285.817 124.194L293.557 122.174ZM292.919 114.096C292.919 110.163 293.179 107.596 293.557 106.146L285.817 104.126C285.171 106.602 284.919 110.008 284.919 114.096H292.919ZM293.596 105.986C293.657 105.704 293.716 105.549 293.744 105.487C293.771 105.426 293.749 105.498 293.633 105.625C293.507 105.763 293.306 105.926 293.031 106.045C292.76 106.163 292.522 106.192 292.375 106.192V98.192C290.603 98.192 288.954 98.8847 287.725 100.231C286.618 101.443 286.071 102.941 285.778 104.286L293.596 105.986ZM292.375 106.192C297.138 106.192 301.321 105.885 304.876 105.23L303.426 97.3622C300.496 97.902 296.828 98.192 292.375 98.192V106.192ZM304.858 105.233C308.291 104.617 312.724 103.659 318.133 102.371L316.281 94.5888C310.938 95.8608 306.667 96.7804 303.444 97.3589L304.858 105.233ZM318.141 102.37L321.34 101.602L319.474 93.8224L316.273 94.5905L318.141 102.37ZM321.288 101.614L329.224 99.8218L327.462 92.0182L319.526 93.8102L321.288 101.614ZM330.278 92.419C326.952 90.5814 324.044 89.1636 321.587 88.2186L318.715 95.6854C320.695 96.4471 323.248 97.6746 326.408 99.421L330.278 92.419ZM321.614 88.229C318.892 87.1599 316.005 86.4427 312.967 86.0629L311.975 94.0011C314.398 94.304 316.631 94.8668 318.688 95.675L321.614 88.229ZM313.089 86.0799C310.181 85.6256 306.498 85.2747 302.082 85.0149L301.612 93.0011C305.9 93.2533 309.3 93.5851 311.853 93.984L313.089 86.0799ZM302.029 85.0121L299.213 84.8841L298.849 92.8759L301.665 93.0039L302.029 85.0121ZM301.859 86.0516L301.347 85.5396L295.691 91.1964L296.203 91.7084L301.859 86.0516ZM302.497 88.7867C302.817 85.7511 303.422 82.341 304.329 78.5463L296.549 76.6857C295.579 80.7417 294.904 84.4996 294.541 87.9493L302.497 88.7867ZM304.315 78.6055C305.322 74.6592 306.22 72.0544 306.961 70.5729L299.805 66.9951C298.669 69.2682 297.604 72.5515 296.563 76.6265L304.315 78.6055ZM303.949 72.7438C305.585 72.51 307.058 72.4 308.375 72.4V64.4C306.62 64.4 304.765 64.546 302.817 64.8242L303.949 72.7438ZM308.375 72.4C311.092 72.4 313.557 72.8391 315.803 73.6813L318.611 66.1907C315.396 64.9848 311.972 64.4 308.375 64.4V72.4ZM315.907 73.7187C318.298 74.5407 320.789 75.7579 323.379 77.4066L327.674 70.6573C324.633 68.7221 321.577 67.2086 318.507 66.1533L315.907 73.7187ZM323.33 77.3748L327.81 80.3188L332.204 73.6332L327.724 70.6892L323.33 77.3748ZM324.007 58.774C322.648 58.2563 320.603 57.1377 317.784 55.2309L313.302 61.8571C316.286 63.8756 318.934 65.4023 321.159 66.2499L324.007 58.774ZM317.85 55.2761C315.029 53.285 313.433 51.8188 312.704 50.8662L306.35 55.7258C307.84 57.6745 310.254 59.707 313.236 61.8119L317.85 55.2761ZM313.425 54.1954C313.556 53.6266 313.985 52.5169 314.959 50.7314L307.935 46.9006C306.861 48.8697 306.01 50.7467 305.629 52.3966L313.425 54.1954ZM314.929 50.7842C315.913 49.0446 316.989 47.5305 318.149 46.2254L312.169 40.9105C310.599 42.6775 309.2 44.6621 307.965 46.8478L314.929 50.7842ZM318.219 46.1445C318.78 45.4777 319.202 45.0877 319.479 44.88C319.773 44.6593 319.737 44.7696 319.401 44.8256L318.085 36.9344C315.542 37.3584 313.541 39.2796 312.099 40.9915L318.219 46.1445ZM319.459 44.8155C319.055 44.8889 318.948 44.7804 319.343 44.9001C319.696 45.0072 320.255 45.2373 321.052 45.6716L324.882 38.6484C323.801 38.0587 322.718 37.5635 321.663 37.2439C320.65 36.937 319.37 36.7005 318.027 36.9445L319.459 44.8155ZM321.117 45.7063C322.748 46.5574 324.237 47.6204 325.592 48.9038L331.094 43.0962C329.206 41.3076 327.111 39.8106 324.817 38.6137L321.117 45.7063ZM325.752 49.0478C326.503 49.6861 326.967 50.1607 327.226 50.4787C327.352 50.6332 327.391 50.7045 327.387 50.6962C327.386 50.694 327.296 50.535 327.237 50.2404L335.081 48.6715C334.808 47.3028 334.055 46.1949 333.428 45.4253C332.748 44.5913 331.889 43.7646 330.934 42.9522L325.752 49.0478ZM327.294 50.4866C327.184 50.0728 327.242 49.8286 327.231 49.8886C327.221 49.9403 327.174 50.1407 327.01 50.5196C326.676 51.2887 326.03 52.4086 324.954 53.9232L331.476 58.5568C332.704 56.8287 333.701 55.1966 334.348 53.7044C334.929 52.3671 335.556 50.4199 335.024 48.4253L327.294 50.4866ZM324.942 53.9402C322.766 57.0368 321.243 58.5979 320.364 59.1838L324.802 65.8402C326.995 64.3781 329.226 61.7579 331.488 58.5398L324.942 53.9402Z" fill="#B90000" mask="url(#path-1-outside-1_6_84)"/>
<g clip-path="url(#clip0_6_84)">
<path d="M413.776 113.222L421.185 169.396C421.542 172.1 423.894 174.092 426.621 173.998L446.498 173.315C450.16 173.19 452.592 169.473 451.242 166.067L429.534 111.3L413.776 113.222Z" fill="white" stroke="#B90000" stroke-width="6.40006"/>
<path d="M414.799 120.271L415.254 124.196C415.254 124.196 434.028 122.432 433.686 121.864C433.345 121.295 430.045 112.135 430.045 112.135L413.32 116.345L414.799 120.271Z" fill="white" stroke="#B90000" stroke-width="6.40006"/>
<path d="M414.568 51.2814L399.574 58.6578C383.467 66.5814 376.834 86.0619 384.758 102.168C392.682 118.275 412.162 124.908 428.269 116.985L443.262 109.608C443.262 109.608 414.178 51.1485 414.568 51.2814Z" fill="white" stroke="#B90000" stroke-width="6.40006"/>
<path d="M381.866 82.8586L381.207 83.1829C373.381 87.0327 370.15 96.4811 373.99 104.286L376.092 108.559C379.932 116.364 389.388 119.571 397.214 115.721L381.866 82.8586Z" fill="white" stroke="#B90000" stroke-width="6.40006"/>
<path d="M495.001 119.773C485.913 119.773 461.097 117.499 440.998 110.818C440.214 110.557 411.065 53.8199 411.328 53.0074C419.691 27.1765 439.57 2.17086 440.417 1.15037C441.106 0.319639 442.171 -0.104006 443.24 0.0216446C444.312 0.148568 445.247 0.809505 445.723 1.7782L501.491 115.136C501.968 116.105 501.921 117.249 501.367 118.175C500.814 119.101 499.828 119.684 498.749 119.723C498.693 119.725 497.346 119.773 495.001 119.773Z" fill="white" stroke="#B90000" stroke-width="6.40006"/>
<path d="M491.711 53.105C490.536 53.105 489.406 52.4517 488.852 51.326C488.076 49.7485 488.726 47.84 490.304 47.064L511.842 36.4678C513.42 35.6914 515.328 36.3413 516.104 37.9192C516.881 39.4966 516.231 41.4051 514.653 42.1811L493.114 52.7773C492.662 52.9997 492.183 53.105 491.711 53.105Z" fill="white" stroke="#B90000" stroke-width="6.40006"/>
<path d="M482.898 34.6302C482.31 34.6302 481.715 34.4676 481.183 34.1263C479.703 33.1776 479.272 31.2079 480.221 29.7277L492.118 11.0126C493.067 9.53243 495.036 9.10157 496.517 10.0503C497.997 10.9991 498.428 12.9687 497.479 14.4489L485.582 33.164C484.974 34.1123 483.947 34.6302 482.898 34.6302Z" fill="white" stroke="#B90000" stroke-width="6.40006"/>
<path d="M522.449 74.4023C522.353 74.4023 522.255 74.3981 522.157 74.3891L500.371 72.1822C498.62 72.023 497.329 70.4745 497.488 68.7234C497.647 66.972 499.196 65.679 500.947 65.8407L522.733 68.0476C524.484 68.2068 525.775 69.7554 525.616 71.5064C525.466 73.1598 524.077 74.4023 522.449 74.4023Z" fill="white" stroke="#B90000" stroke-width="6.40006"/>
</g>
<defs>
<clipPath id="clip0_6_84">
<rect width="174" height="174" fill="white" transform="translate(362)"/>
</clipPath>
</defs>
</svg>
